<svg xmlns="http://www.w3.org/2000/svg" contentScriptType="text/ecmascript" width="30" viewBox="0 0 30 30" height="30" version="1.0"><defs><clipPath id="a"><path d="M 13 15 L 17 15 L 17 27.988281 L 13 27.988281 Z M 13 15"/></clipPath><clipPath id="b"><path d="M 13 15 L 18 15 L 18 27.988281 L 13 27.988281 Z M 13 15"/></clipPath><clipPath id="c"><path d="M 8.695312 2 L 21.757812 2 L 21.757812 20 L 8.695312 20 Z M 8.695312 2"/></clipPath><clipPath id="d"><path d="M 8.695312 1.859375 L 21.757812 1.859375 L 21.757812 20 L 8.695312 20 Z M 8.695312 1.859375"/></clipPath><clipPath id="e"><path d="M 14 19 L 17 19 L 17 27.988281 L 14 27.988281 Z M 14 19"/></clipPath></defs><g clip-path="url(#a)"><path fill="#E5CB9E" d="M 16.910156 25.734375 C 16.910156 26.871094 16.160156 27.792969 15.234375 27.792969 C 14.308594 27.792969 13.558594 26.871094 13.558594 25.734375 L 13.558594 17.496094 C 13.558594 16.359375 14.308594 15.4375 15.234375 15.4375 C 16.160156 15.4375 16.910156 16.359375 16.910156 17.496094 Z M 16.910156 25.734375"/></g><g clip-path="url(#b)"><path fill="#551802" d="M 15.234375 27.988281 C 14.199219 27.988281 13.363281 26.976562 13.363281 25.734375 L 13.363281 17.496094 C 13.363281 16.253906 14.199219 15.242188 15.234375 15.242188 C 16.265625 15.242188 17.105469 16.253906 17.105469 17.496094 L 17.105469 25.734375 C 17.105469 26.976562 16.265625 27.988281 15.234375 27.988281 Z M 15.234375 15.628906 C 14.417969 15.628906 13.753906 16.46875 13.753906 17.496094 L 13.753906 25.734375 C 13.753906 26.761719 14.417969 27.601562 15.234375 27.601562 C 16.050781 27.601562 16.714844 26.761719 16.714844 25.734375 L 16.714844 17.496094 C 16.714844 16.46875 16.050781 15.628906 15.234375 15.628906 Z M 15.234375 15.628906"/></g><g clip-path="url(#c)"><path fill="#FF478A" d="M 21.554688 19.660156 L 21.554688 6.632812 C 21.554688 4.101562 19.496094 2.050781 16.957031 2.050781 L 13.507812 2.050781 C 10.96875 2.050781 8.914062 4.101562 8.914062 6.632812 L 8.914062 19.660156 Z M 21.554688 19.660156"/></g><g clip-path="url(#d)"><path fill="#551802" d="M 21.554688 19.851562 L 8.910156 19.851562 C 8.804688 19.851562 8.714844 19.765625 8.714844 19.660156 L 8.714844 6.632812 C 8.714844 4 10.867188 1.855469 13.507812 1.855469 L 16.957031 1.855469 C 19.597656 1.855469 21.75 4 21.75 6.632812 L 21.75 19.660156 C 21.75 19.765625 21.660156 19.851562 21.554688 19.851562 Z M 9.109375 19.464844 L 21.359375 19.464844 L 21.359375 6.632812 C 21.359375 4.214844 19.382812 2.246094 16.957031 2.246094 L 13.507812 2.246094 C 11.082031 2.246094 9.109375 4.214844 9.109375 6.632812 Z M 9.109375 19.464844"/></g><path fill="#551802" d="M 12.253906 17.5625 C 12.148438 17.5625 12.058594 17.476562 12.058594 17.367188 L 12.058594 5.726562 C 12.058594 5.617188 12.148438 5.53125 12.253906 5.53125 C 12.363281 5.53125 12.449219 5.617188 12.449219 5.726562 L 12.449219 17.367188 C 12.449219 17.476562 12.363281 17.5625 12.253906 17.5625 Z M 12.253906 17.5625"/><path fill="#E5CB9E" d="M 18 5.726562 L 18.144531 17.367188"/><path fill="#551802" d="M 18.144531 17.5625 C 18.039062 17.5625 17.949219 17.476562 17.949219 17.371094 L 17.804688 5.726562 C 17.804688 5.621094 17.890625 5.53125 17.996094 5.53125 C 18 5.53125 18 5.53125 18 5.53125 C 18.105469 5.53125 18.195312 5.617188 18.195312 5.722656 L 18.339844 17.367188 C 18.339844 17.472656 18.253906 17.5625 18.148438 17.5625 C 18.144531 17.5625 18.144531 17.5625 18.144531 17.5625 Z M 18.144531 17.5625"/><g clip-path="url(#e)"><path fill="#551802" d="M 15.347656 27.085938 C 14.988281 27.085938 14.691406 26.925781 14.671875 26.914062 C 14.578125 26.863281 14.546875 26.742188 14.597656 26.648438 C 14.648438 26.554688 14.769531 26.523438 14.863281 26.574219 C 14.871094 26.578125 15.285156 26.800781 15.628906 26.636719 C 15.875 26.523438 16.039062 26.238281 16.128906 25.796875 L 16.128906 20.183594 C 16.128906 20.078125 16.214844 19.988281 16.324219 19.988281 C 16.433594 19.988281 16.519531 20.078125 16.519531 20.183594 L 16.519531 25.8125 C 16.519531 25.828125 16.519531 25.839844 16.515625 25.851562 C 16.402344 26.4375 16.160156 26.820312 15.792969 26.992188 C 15.644531 27.0625 15.492188 27.085938 15.347656 27.085938 Z M 15.347656 27.085938"/></g><path fill="#FFF" d="M 16.269531 -0.753906 C 14.863281 -0.753906 13.726562 0.21875 13.726562 1.421875 C 13.726562 2.625 14.863281 3.601562 16.269531 3.601562 C 17.671875 3.601562 18.808594 2.625 18.808594 1.421875 C 18.808594 0.21875 17.671875 -0.753906 16.269531 -0.753906 Z M 16.269531 -0.753906"/><path fill="#FFF" d="M 20.421875 0 C 18.21875 0 16.429688 1.789062 16.429688 3.992188 C 16.429688 6.195312 18.21875 7.984375 20.421875 7.984375 C 22.625 7.984375 24.414062 6.195312 24.414062 3.992188 C 24.414062 1.789062 22.625 0 20.421875 0 Z M 20.421875 0"/></svg>